<?xml version="1.0" encoding="UTF-8" standalone="no"?>
<!DOCTYPE svg PUBLIC "-//W3C//DTD SVG 1.1//EN"
 "http://www.w3.org/Graphics/SVG/1.1/DTD/svg11.dtd">
<!-- Generated by graphviz version 2.40.1 (20161225.0304)
 -->
<!-- Title: controllers_diagram Pages: 1 -->
<svg width="556pt" height="597pt"
 viewBox="0.00 0.00 556.00 597.00" xmlns="http://www.w3.org/2000/svg" xmlns:xlink="http://www.w3.org/1999/xlink">
<g id="graph0" class="graph" transform="scale(1 1) rotate(0) translate(4 593)">
<title>controllers_diagram</title>
<polygon fill="transparent" stroke="transparent" points="-4,4 -4,-593 552,-593 552,4 -4,4"/>
<!-- _diagram_info -->
<g id="node1" class="node">
<title>_diagram_info</title>
<text text-anchor="start" x="113" y="-273.6" font-family="Times,serif" font-size="13.00" fill="#000000">Controllers diagram</text>
<text text-anchor="start" x="113" y="-259.6" font-family="Times,serif" font-size="13.00" fill="#000000">Date: Nov 07 2019 &#45; 23:52</text>
<text text-anchor="start" x="113" y="-245.6" font-family="Times,serif" font-size="13.00" fill="#000000">Migration version: 20191008150135</text>
<text text-anchor="start" x="113" y="-231.6" font-family="Times,serif" font-size="13.00" fill="#000000">Generated by RailRoady 1.5.3</text>
<text text-anchor="start" x="113" y="-217.6" font-family="Times,serif" font-size="13.00" fill="#000000">http://railroady.prestonlee.com</text>
</g>
<!-- Web::WelcomeController -->
<g id="node2" class="node">
<title>Web::WelcomeController</title>
<path fill="none" stroke="#000000" d="M357,-135.5C357,-135.5 492,-135.5 492,-135.5 498,-135.5 504,-141.5 504,-147.5 504,-147.5 504,-216.5 504,-216.5 504,-222.5 498,-228.5 492,-228.5 492,-228.5 357,-228.5 357,-228.5 351,-228.5 345,-222.5 345,-216.5 345,-216.5 345,-147.5 345,-147.5 345,-141.5 351,-135.5 357,-135.5"/>
<text text-anchor="middle" x="424.5" y="-213.3" font-family="Times,serif" font-size="14.00" fill="#000000">Web::WelcomeController</text>
<polyline fill="none" stroke="#000000" points="345,-205.5 504,-205.5 "/>
<text text-anchor="start" x="353" y="-190.3" font-family="Times,serif" font-size="14.00" fill="#000000">index</text>
<polyline fill="none" stroke="#000000" points="345,-182.5 504,-182.5 "/>
<polyline fill="none" stroke="#000000" points="345,-158.5 504,-158.5 "/>
<text text-anchor="start" x="353" y="-143.3" font-family="Times,serif" font-size="14.00" fill="#000000">_layout</text>
</g>
<!-- UsersController -->
<g id="node3" class="node">
<title>UsersController</title>
<path fill="none" stroke="#000000" d="M162,-330.5C162,-330.5 241,-330.5 241,-330.5 247,-330.5 253,-336.5 253,-342.5 253,-342.5 253,-471.5 253,-471.5 253,-477.5 247,-483.5 241,-483.5 241,-483.5 162,-483.5 162,-483.5 156,-483.5 150,-477.5 150,-471.5 150,-471.5 150,-342.5 150,-342.5 150,-336.5 156,-330.5 162,-330.5"/>
<text text-anchor="middle" x="201.5" y="-468.3" font-family="Times,serif" font-size="14.00" fill="#000000">UsersController</text>
<polyline fill="none" stroke="#000000" points="150,-460.5 253,-460.5 "/>
<text text-anchor="start" x="158" y="-445.3" font-family="Times,serif" font-size="14.00" fill="#000000">create</text>
<text text-anchor="start" x="158" y="-430.3" font-family="Times,serif" font-size="14.00" fill="#000000">current_user</text>
<text text-anchor="start" x="158" y="-415.3" font-family="Times,serif" font-size="14.00" fill="#000000">new</text>
<text text-anchor="start" x="158" y="-400.3" font-family="Times,serif" font-size="14.00" fill="#000000">show</text>
<polyline fill="none" stroke="#000000" points="150,-392.5 253,-392.5 "/>
<polyline fill="none" stroke="#000000" points="150,-368.5 253,-368.5 "/>
<text text-anchor="start" x="158" y="-353.3" font-family="Times,serif" font-size="14.00" fill="#000000">_layout</text>
<text text-anchor="start" x="158" y="-338.3" font-family="Times,serif" font-size="14.00" fill="#000000">user_params</text>
</g>
<!-- ApplicationController -->
<g id="node4" class="node">
<title>ApplicationController</title>
<path fill="none" stroke="#000000" d="M72,-90.5C72,-90.5 184,-90.5 184,-90.5 190,-90.5 196,-96.5 196,-102.5 196,-102.5 196,-172.5 196,-172.5 196,-178.5 190,-184.5 184,-184.5 184,-184.5 72,-184.5 72,-184.5 66,-184.5 60,-178.5 60,-172.5 60,-172.5 60,-102.5 60,-102.5 60,-96.5 66,-90.5 72,-90.5"/>
<text text-anchor="middle" x="128" y="-169.3" font-family="Times,serif" font-size="14.00" fill="#000000">ApplicationController</text>
<polyline fill="none" stroke="#000000" points="60,-161.5 196,-161.5 "/>
<polyline fill="none" stroke="#000000" points="60,-137.5 196,-137.5 "/>
<polyline fill="none" stroke="#000000" points="60,-113.5 196,-113.5 "/>
<text text-anchor="start" x="68" y="-98.3" font-family="Times,serif" font-size="14.00" fill="#000000">_layout</text>
</g>
<!-- AuthorController -->
<g id="node5" class="node">
<title>AuthorController</title>
<path fill="none" stroke="#000000" d="M297,-315.5C297,-315.5 383,-315.5 383,-315.5 389,-315.5 395,-321.5 395,-327.5 395,-327.5 395,-456.5 395,-456.5 395,-462.5 389,-468.5 383,-468.5 383,-468.5 297,-468.5 297,-468.5 291,-468.5 285,-462.5 285,-456.5 285,-456.5 285,-327.5 285,-327.5 285,-321.5 291,-315.5 297,-315.5"/>
<text text-anchor="middle" x="340" y="-453.3" font-family="Times,serif" font-size="14.00" fill="#000000">AuthorController</text>
<polyline fill="none" stroke="#000000" points="285,-445.5 395,-445.5 "/>
<text text-anchor="start" x="293" y="-430.3" font-family="Times,serif" font-size="14.00" fill="#000000">create</text>
<text text-anchor="start" x="293" y="-415.3" font-family="Times,serif" font-size="14.00" fill="#000000">destroy</text>
<text text-anchor="start" x="293" y="-400.3" font-family="Times,serif" font-size="14.00" fill="#000000">index</text>
<text text-anchor="start" x="293" y="-385.3" font-family="Times,serif" font-size="14.00" fill="#000000">new</text>
<text text-anchor="start" x="293" y="-370.3" font-family="Times,serif" font-size="14.00" fill="#000000">show</text>
<polyline fill="none" stroke="#000000" points="285,-362.5 395,-362.5 "/>
<polyline fill="none" stroke="#000000" points="285,-338.5 395,-338.5 "/>
<text text-anchor="start" x="293" y="-323.3" font-family="Times,serif" font-size="14.00" fill="#000000">_layout</text>
</g>
<!-- HeadingController -->
<g id="node6" class="node">
<title>HeadingController</title>
<path fill="none" stroke="#000000" d="M237,-.5C237,-.5 331,-.5 331,-.5 337,-.5 343,-6.5 343,-12.5 343,-12.5 343,-96.5 343,-96.5 343,-102.5 337,-108.5 331,-108.5 331,-108.5 237,-108.5 237,-108.5 231,-108.5 225,-102.5 225,-96.5 225,-96.5 225,-12.5 225,-12.5 225,-6.5 231,-.5 237,-.5"/>
<text text-anchor="middle" x="284" y="-93.3" font-family="Times,serif" font-size="14.00" fill="#000000">HeadingController</text>
<polyline fill="none" stroke="#000000" points="225,-85.5 343,-85.5 "/>
<text text-anchor="start" x="233" y="-70.3" font-family="Times,serif" font-size="14.00" fill="#000000">index</text>
<text text-anchor="start" x="233" y="-55.3" font-family="Times,serif" font-size="14.00" fill="#000000">show</text>
<polyline fill="none" stroke="#000000" points="225,-47.5 343,-47.5 "/>
<polyline fill="none" stroke="#000000" points="225,-23.5 343,-23.5 "/>
<text text-anchor="start" x="233" y="-8.3" font-family="Times,serif" font-size="14.00" fill="#000000">_layout</text>
</g>
<!-- BookCaseController -->
<g id="node7" class="node">
<title>BookCaseController</title>
<path fill="none" stroke="#000000" d="M432,-420.5C432,-420.5 536,-420.5 536,-420.5 542,-420.5 548,-426.5 548,-432.5 548,-432.5 548,-516.5 548,-516.5 548,-522.5 542,-528.5 536,-528.5 536,-528.5 432,-528.5 432,-528.5 426,-528.5 420,-522.5 420,-516.5 420,-516.5 420,-432.5 420,-432.5 420,-426.5 426,-420.5 432,-420.5"/>
<text text-anchor="middle" x="484" y="-513.3" font-family="Times,serif" font-size="14.00" fill="#000000">BookCaseController</text>
<polyline fill="none" stroke="#000000" points="420,-505.5 548,-505.5 "/>
<text text-anchor="start" x="428" y="-490.3" font-family="Times,serif" font-size="14.00" fill="#000000">create</text>
<text text-anchor="start" x="428" y="-475.3" font-family="Times,serif" font-size="14.00" fill="#000000">new</text>
<polyline fill="none" stroke="#000000" points="420,-467.5 548,-467.5 "/>
<polyline fill="none" stroke="#000000" points="420,-443.5 548,-443.5 "/>
<text text-anchor="start" x="428" y="-428.3" font-family="Times,serif" font-size="14.00" fill="#000000">_layout</text>
</g>
<!-- PublisherController -->
<g id="node8" class="node">
<title>PublisherController</title>
<path fill="none" stroke="#000000" d="M12,-480.5C12,-480.5 111,-480.5 111,-480.5 117,-480.5 123,-486.5 123,-492.5 123,-492.5 123,-576.5 123,-576.5 123,-582.5 117,-588.5 111,-588.5 111,-588.5 12,-588.5 12,-588.5 6,-588.5 0,-582.5 0,-576.5 0,-576.5 0,-492.5 0,-492.5 0,-486.5 6,-480.5 12,-480.5"/>
<text text-anchor="middle" x="61.5" y="-573.3" font-family="Times,serif" font-size="14.00" fill="#000000">PublisherController</text>
<polyline fill="none" stroke="#000000" points="0,-565.5 123,-565.5 "/>
<text text-anchor="start" x="8" y="-550.3" font-family="Times,serif" font-size="14.00" fill="#000000">index</text>
<text text-anchor="start" x="8" y="-535.3" font-family="Times,serif" font-size="14.00" fill="#000000">show</text>
<polyline fill="none" stroke="#000000" points="0,-527.5 123,-527.5 "/>
<polyline fill="none" stroke="#000000" points="0,-503.5 123,-503.5 "/>
<text text-anchor="start" x="8" y="-488.3" font-family="Times,serif" font-size="14.00" fill="#000000">_layout</text>
</g>
<!-- SessionsController -->
<g id="node9" class="node">
<title>SessionsController</title>
<path fill="none" stroke="#000000" d="M12,-330.5C12,-330.5 107,-330.5 107,-330.5 113,-330.5 119,-336.5 119,-342.5 119,-342.5 119,-441.5 119,-441.5 119,-447.5 113,-453.5 107,-453.5 107,-453.5 12,-453.5 12,-453.5 6,-453.5 0,-447.5 0,-441.5 0,-441.5 0,-342.5 0,-342.5 0,-336.5 6,-330.5 12,-330.5"/>
<text text-anchor="middle" x="59.5" y="-438.3" font-family="Times,serif" font-size="14.00" fill="#000000">SessionsController</text>
<polyline fill="none" stroke="#000000" points="0,-430.5 119,-430.5 "/>
<text text-anchor="start" x="8" y="-415.3" font-family="Times,serif" font-size="14.00" fill="#000000">create</text>
<text text-anchor="start" x="8" y="-400.3" font-family="Times,serif" font-size="14.00" fill="#000000">destroy</text>
<text text-anchor="start" x="8" y="-385.3" font-family="Times,serif" font-size="14.00" fill="#000000">new</text>
<polyline fill="none" stroke="#000000" points="0,-377.5 119,-377.5 "/>
<polyline fill="none" stroke="#000000" points="0,-353.5 119,-353.5 "/>
<text text-anchor="start" x="8" y="-338.3" font-family="Times,serif" font-size="14.00" fill="#000000">_layout</text>
</g>
<!-- BooksController -->
<g id="node10" class="node">
<title>BooksController</title>
<path fill="none" stroke="#000000" d="M432,-255.5C432,-255.5 515,-255.5 515,-255.5 521,-255.5 527,-261.5 527,-267.5 527,-267.5 527,-381.5 527,-381.5 527,-387.5 521,-393.5 515,-393.5 515,-393.5 432,-393.5 432,-393.5 426,-393.5 420,-387.5 420,-381.5 420,-381.5 420,-267.5 420,-267.5 420,-261.5 426,-255.5 432,-255.5"/>
<text text-anchor="middle" x="473.5" y="-378.3" font-family="Times,serif" font-size="14.00" fill="#000000">BooksController</text>
<polyline fill="none" stroke="#000000" points="420,-370.5 527,-370.5 "/>
<text text-anchor="start" x="428" y="-355.3" font-family="Times,serif" font-size="14.00" fill="#000000">create</text>
<text text-anchor="start" x="428" y="-340.3" font-family="Times,serif" font-size="14.00" fill="#000000">index</text>
<text text-anchor="start" x="428" y="-325.3" font-family="Times,serif" font-size="14.00" fill="#000000">new</text>
<text text-anchor="start" x="428" y="-310.3" font-family="Times,serif" font-size="14.00" fill="#000000">show</text>
<polyline fill="none" stroke="#000000" points="420,-302.5 527,-302.5 "/>
<polyline fill="none" stroke="#000000" points="420,-278.5 527,-278.5 "/>
<text text-anchor="start" x="428" y="-263.3" font-family="Times,serif" font-size="14.00" fill="#000000">_layout</text>
</g>
</g>
</svg>
