<?xml version="1.0" encoding="UTF-8" standalone="no"?>
<!DOCTYPE svg PUBLIC "-//W3C//DTD SVG 1.1//EN"
 "http://www.w3.org/Graphics/SVG/1.1/DTD/svg11.dtd">
<!-- Generated by graphviz version 2.40.1 (20161225.0304)
 -->
<!-- Title: models_diagram Pages: 1 -->
<svg width="848pt" height="729pt"
 viewBox="0.00 0.00 848.00 729.00" xmlns="http://www.w3.org/2000/svg" xmlns:xlink="http://www.w3.org/1999/xlink">
<g id="graph0" class="graph" transform="scale(1 1) rotate(0) translate(4 725)">
<title>models_diagram</title>
<polygon fill="transparent" stroke="transparent" points="-4,4 -4,-725 844,-725 844,4 -4,4"/>
<!-- _diagram_info -->
<g id="node1" class="node">
<title>_diagram_info</title>
<text text-anchor="start" x="8" y="-654.6" font-family="Times,serif" font-size="13.00" fill="#000000">Models diagram</text>
<text text-anchor="start" x="8" y="-640.6" font-family="Times,serif" font-size="13.00" fill="#000000">Date: Nov 07 2019 &#45; 23:52</text>
<text text-anchor="start" x="8" y="-626.6" font-family="Times,serif" font-size="13.00" fill="#000000">Migration version: 20191008150135</text>
<text text-anchor="start" x="8" y="-612.6" font-family="Times,serif" font-size="13.00" fill="#000000">Generated by RailRoady 1.5.3</text>
<text text-anchor="start" x="8" y="-598.6" font-family="Times,serif" font-size="13.00" fill="#000000">http://railroady.prestonlee.com</text>
</g>
<!-- ApplicationRecord -->
<g id="node2" class="node">
<title>ApplicationRecord</title>
<ellipse fill="none" stroke="#000000" cx="253" cy="-163" rx="77.1866" ry="18"/>
<text text-anchor="middle" x="253" y="-159.3" font-family="Times,serif" font-size="14.00" fill="#000000">ApplicationRecord</text>
</g>
<!-- Audited::Audit -->
<g id="node9" class="node">
<title>Audited::Audit</title>
<ellipse fill="none" stroke="#000000" cx="461" cy="-18" rx="63.8893" ry="18"/>
<text text-anchor="middle" x="461" y="-14.3" font-family="Times,serif" font-size="14.00" fill="#000000">Audited::Audit</text>
</g>
<!-- ApplicationRecord&#45;&gt;Audited::Audit -->
<g id="edge1" class="edge">
<title>ApplicationRecord&#45;&gt;Audited::Audit</title>
<path fill="none" stroke="#25aeb9" d="M259.9525,-137.2338C268.0584,-112.1893 283.9257,-74.9548 311,-54 324.3968,-43.6312 361.1856,-34.7187 394.9746,-28.3554"/>
<ellipse fill="none" stroke="#25aeb9" cx="258.7675" cy="-141.0782" rx="4" ry="4"/>
<polygon fill="#25aeb9" stroke="#25aeb9" points="395.0308,-28.3453 405.6771,-30.9732 399.9493,-27.4459 404.8677,-26.5466 404.8677,-26.5466 404.8677,-26.5466 399.9493,-27.4459 404.0583,-22.12 395.0308,-28.3453 395.0308,-28.3453"/>
<text text-anchor="middle" x="327.5" y="-57.8" font-family="Times,serif" font-size="14.00" fill="#000000">audits</text>
</g>
<!-- Publisher -->
<g id="node3" class="node">
<title>Publisher</title>
<path fill="none" stroke="#000000" d="M393.5,-577C393.5,-577 500.5,-577 500.5,-577 506.5,-577 512.5,-583 512.5,-589 512.5,-589 512.5,-671 512.5,-671 512.5,-677 506.5,-683 500.5,-683 500.5,-683 393.5,-683 393.5,-683 387.5,-683 381.5,-677 381.5,-671 381.5,-671 381.5,-589 381.5,-589 381.5,-583 387.5,-577 393.5,-577"/>
<text text-anchor="middle" x="447" y="-667.8" font-family="Times,serif" font-size="14.00" fill="#000000">Publisher</text>
<polyline fill="none" stroke="#000000" points="381.5,-660 512.5,-660 "/>
<text text-anchor="start" x="389.5" y="-644.8" font-family="Times,serif" font-size="14.00" fill="#000000">id :INTEGER</text>
<text text-anchor="start" x="389.5" y="-629.8" font-family="Times,serif" font-size="14.00" fill="#000000">name :text</text>
<text text-anchor="start" x="389.5" y="-614.8" font-family="Times,serif" font-size="14.00" fill="#000000">created_at :datetime</text>
<text text-anchor="start" x="389.5" y="-599.8" font-family="Times,serif" font-size="14.00" fill="#000000">updated_at :datetime</text>
<text text-anchor="start" x="389.5" y="-584.8" font-family="Times,serif" font-size="14.00" fill="#000000">state :text</text>
</g>
<!-- Book -->
<g id="node5" class="node">
<title>Book</title>
<path fill="none" stroke="#000000" d="M481.5,-290.5C481.5,-290.5 606.5,-290.5 606.5,-290.5 612.5,-290.5 618.5,-296.5 618.5,-302.5 618.5,-302.5 618.5,-489.5 618.5,-489.5 618.5,-495.5 612.5,-501.5 606.5,-501.5 606.5,-501.5 481.5,-501.5 481.5,-501.5 475.5,-501.5 469.5,-495.5 469.5,-489.5 469.5,-489.5 469.5,-302.5 469.5,-302.5 469.5,-296.5 475.5,-290.5 481.5,-290.5"/>
<text text-anchor="middle" x="544" y="-486.3" font-family="Times,serif" font-size="14.00" fill="#000000">Book</text>
<polyline fill="none" stroke="#000000" points="469.5,-478.5 618.5,-478.5 "/>
<text text-anchor="start" x="477.5" y="-463.3" font-family="Times,serif" font-size="14.00" fill="#000000">id :integer</text>
<text text-anchor="start" x="477.5" y="-448.3" font-family="Times,serif" font-size="14.00" fill="#000000">year_publishing :integer</text>
<text text-anchor="start" x="477.5" y="-433.3" font-family="Times,serif" font-size="14.00" fill="#000000">age_restrictions :integer</text>
<text text-anchor="start" x="477.5" y="-418.3" font-family="Times,serif" font-size="14.00" fill="#000000">user_id :integer</text>
<text text-anchor="start" x="477.5" y="-403.3" font-family="Times,serif" font-size="14.00" fill="#000000">created_at :datetime</text>
<text text-anchor="start" x="477.5" y="-388.3" font-family="Times,serif" font-size="14.00" fill="#000000">updated_at :datetime</text>
<text text-anchor="start" x="477.5" y="-373.3" font-family="Times,serif" font-size="14.00" fill="#000000">state :text</text>
<text text-anchor="start" x="477.5" y="-358.3" font-family="Times,serif" font-size="14.00" fill="#000000">name :text</text>
<text text-anchor="start" x="477.5" y="-343.3" font-family="Times,serif" font-size="14.00" fill="#000000">author_id :integer</text>
<text text-anchor="start" x="477.5" y="-328.3" font-family="Times,serif" font-size="14.00" fill="#000000">publisher_id :integer</text>
<text text-anchor="start" x="477.5" y="-313.3" font-family="Times,serif" font-size="14.00" fill="#000000">heading_id :integer</text>
<text text-anchor="start" x="477.5" y="-298.3" font-family="Times,serif" font-size="14.00" fill="#000000">bookcases_id :integer</text>
</g>
<!-- Publisher&#45;&gt;Book -->
<g id="edge3" class="edge">
<title>Publisher&#45;&gt;Book</title>
<path fill="none" stroke="#d10da2" d="M472.1195,-569.4024C479.581,-551.4025 488.0129,-531.0616 496.4086,-510.8082"/>
<ellipse fill="none" stroke="#d10da2" cx="470.5426" cy="-573.2067" rx="4" ry="4"/>
<polygon fill="#d10da2" stroke="#d10da2" points="496.4305,-510.7552 504.4168,-503.2407 498.3452,-506.1364 500.2598,-501.5175 500.2598,-501.5175 500.2598,-501.5175 498.3452,-506.1364 496.1029,-499.7943 496.4305,-510.7552 496.4305,-510.7552"/>
</g>
<!-- Publisher&#45;&gt;Audited::Audit -->
<g id="edge2" class="edge">
<title>Publisher&#45;&gt;Audited::Audit</title>
<path fill="none" stroke="#4d9219" d="M443.4886,-568.5593C439.7698,-494.6143 434.9528,-366.6934 439,-257 442.3356,-166.5933 442.0119,-143.6704 454,-54 454.3396,-51.4599 454.7454,-48.8285 455.1883,-46.1975"/>
<ellipse fill="none" stroke="#4d9219" cx="443.7089" cy="-572.8693" rx="4" ry="4"/>
<polygon fill="#4d9219" stroke="#4d9219" points="455.2098,-46.0803 461.4439,-37.0588 456.1139,-41.1627 457.018,-36.2451 457.018,-36.2451 457.018,-36.2451 456.1139,-41.1627 452.5922,-35.4314 455.2098,-46.0803 455.2098,-46.0803"/>
<text text-anchor="middle" x="455.5" y="-260.8" font-family="Times,serif" font-size="14.00" fill="#000000">audits</text>
</g>
<!-- Author -->
<g id="node4" class="node">
<title>Author</title>
<path fill="none" stroke="#000000" d="M244.5,-577C244.5,-577 351.5,-577 351.5,-577 357.5,-577 363.5,-583 363.5,-589 363.5,-589 363.5,-671 363.5,-671 363.5,-677 357.5,-683 351.5,-683 351.5,-683 244.5,-683 244.5,-683 238.5,-683 232.5,-677 232.5,-671 232.5,-671 232.5,-589 232.5,-589 232.5,-583 238.5,-577 244.5,-577"/>
<text text-anchor="middle" x="298" y="-667.8" font-family="Times,serif" font-size="14.00" fill="#000000">Author</text>
<polyline fill="none" stroke="#000000" points="232.5,-660 363.5,-660 "/>
<text text-anchor="start" x="240.5" y="-644.8" font-family="Times,serif" font-size="14.00" fill="#000000">id :INTEGER</text>
<text text-anchor="start" x="240.5" y="-629.8" font-family="Times,serif" font-size="14.00" fill="#000000">created_at :datetime</text>
<text text-anchor="start" x="240.5" y="-614.8" font-family="Times,serif" font-size="14.00" fill="#000000">updated_at :datetime</text>
<text text-anchor="start" x="240.5" y="-599.8" font-family="Times,serif" font-size="14.00" fill="#000000">name :text</text>
<text text-anchor="start" x="240.5" y="-584.8" font-family="Times,serif" font-size="14.00" fill="#000000">state :text</text>
</g>
<!-- Author&#45;&gt;Book -->
<g id="edge5" class="edge">
<title>Author&#45;&gt;Book</title>
<path fill="none" stroke="#31a99a" d="M343.8084,-570.237C352.8002,-559.5145 362.4233,-548.6813 372,-539 399.5765,-511.1223 432.1587,-482.9884 461.5073,-459.1377"/>
<ellipse fill="none" stroke="#31a99a" cx="341.1454" cy="-573.4488" rx="4" ry="4"/>
<polygon fill="#31a99a" stroke="#31a99a" points="461.5127,-459.1333 472.1196,-456.3501 465.4023,-455.9914 469.2918,-452.8495 469.2918,-452.8495 469.2918,-452.8495 465.4023,-455.9914 466.4641,-449.3489 461.5127,-459.1333 461.5127,-459.1333"/>
</g>
<!-- Author&#45;&gt;Audited::Audit -->
<g id="edge4" class="edge">
<title>Author&#45;&gt;Audited::Audit</title>
<path fill="none" stroke="#940482" d="M311.4896,-568.7386C334.2251,-467.5917 382.9192,-259.6713 436,-87 440.254,-73.1619 445.6567,-58.0148 450.3505,-45.4467"/>
<ellipse fill="none" stroke="#940482" cx="310.5754" cy="-572.8154" rx="4" ry="4"/>
<polygon fill="#940482" stroke="#940482" points="450.388,-45.3474 458.136,-37.5873 452.1576,-40.671 453.9273,-35.9946 453.9273,-35.9946 453.9273,-35.9946 452.1576,-40.671 449.7185,-34.402 450.388,-45.3474 450.388,-45.3474"/>
<text text-anchor="middle" x="404.5" y="-260.8" font-family="Times,serif" font-size="14.00" fill="#000000">audits</text>
</g>
<!-- Bookcase -->
<g id="node6" class="node">
<title>Bookcase</title>
<path fill="none" stroke="#000000" d="M524.5,-87.5C524.5,-87.5 633.5,-87.5 633.5,-87.5 639.5,-87.5 645.5,-93.5 645.5,-99.5 645.5,-99.5 645.5,-226.5 645.5,-226.5 645.5,-232.5 639.5,-238.5 633.5,-238.5 633.5,-238.5 524.5,-238.5 524.5,-238.5 518.5,-238.5 512.5,-232.5 512.5,-226.5 512.5,-226.5 512.5,-99.5 512.5,-99.5 512.5,-93.5 518.5,-87.5 524.5,-87.5"/>
<text text-anchor="middle" x="579" y="-223.3" font-family="Times,serif" font-size="14.00" fill="#000000">Bookcase</text>
<polyline fill="none" stroke="#000000" points="512.5,-215.5 645.5,-215.5 "/>
<text text-anchor="start" x="520.5" y="-200.3" font-family="Times,serif" font-size="14.00" fill="#000000">id :INTEGER</text>
<text text-anchor="start" x="520.5" y="-185.3" font-family="Times,serif" font-size="14.00" fill="#000000">book_id :integer</text>
<text text-anchor="start" x="520.5" y="-170.3" font-family="Times,serif" font-size="14.00" fill="#000000">user_id :integer</text>
<text text-anchor="start" x="520.5" y="-155.3" font-family="Times,serif" font-size="14.00" fill="#000000">taken_at :datetime</text>
<text text-anchor="start" x="520.5" y="-140.3" font-family="Times,serif" font-size="14.00" fill="#000000">returned_at :datetime</text>
<text text-anchor="start" x="520.5" y="-125.3" font-family="Times,serif" font-size="14.00" fill="#000000">created_at :datetime</text>
<text text-anchor="start" x="520.5" y="-110.3" font-family="Times,serif" font-size="14.00" fill="#000000">updated_at :datetime</text>
<text text-anchor="start" x="520.5" y="-95.3" font-family="Times,serif" font-size="14.00" fill="#000000">state :text</text>
</g>
<!-- Book&#45;&gt;Bookcase -->
<g id="edge7" class="edge">
<title>Book&#45;&gt;Bookcase</title>
<path fill="none" stroke="#ad029a" d="M561.0936,-282.2056C562.8981,-270.1925 564.7084,-258.141 566.4477,-246.5624"/>
<ellipse fill="none" stroke="#ad029a" cx="560.4557" cy="-286.452" rx="4" ry="4"/>
<ellipse fill="#ad029a" stroke="#ad029a" cx="567.0453" cy="-242.5839" rx="4" ry="4"/>
</g>
<!-- Book&#45;&gt;Audited::Audit -->
<g id="edge6" class="edge">
<title>Book&#45;&gt;Audited::Audit</title>
<path fill="none" stroke="#262f27" d="M484.2762,-282.8925C478.5634,-268.4289 473.5766,-253.5788 470,-239 453.4192,-171.4142 455.8035,-88.7668 458.6111,-46.2518"/>
<ellipse fill="none" stroke="#262f27" cx="485.8236" cy="-286.7103" rx="4" ry="4"/>
<polygon fill="#262f27" stroke="#262f27" points="458.6239,-46.0721 463.8301,-36.4209 458.9828,-41.085 459.3417,-36.0979 459.3417,-36.0979 459.3417,-36.0979 458.9828,-41.085 454.8533,-35.7749 458.6239,-46.0721 458.6239,-46.0721"/>
<text text-anchor="middle" x="486.5" y="-159.3" font-family="Times,serif" font-size="14.00" fill="#000000">audits</text>
</g>
<!-- Bookcase&#45;&gt;Audited::Audit -->
<g id="edge8" class="edge">
<title>Bookcase&#45;&gt;Audited::Audit</title>
<path fill="none" stroke="#a50875" d="M512.0908,-80.7811C501.118,-67.2976 490.5169,-54.2707 481.8427,-43.6118"/>
<ellipse fill="none" stroke="#a50875" cx="514.7105" cy="-84.0002" rx="4" ry="4"/>
<polygon fill="#a50875" stroke="#a50875" points="481.6411,-43.364 478.8194,-32.7674 478.4851,-39.4859 475.3291,-35.6078 475.3291,-35.6078 475.3291,-35.6078 478.4851,-39.4859 471.8388,-38.4482 481.6411,-43.364 481.6411,-43.364"/>
<text text-anchor="middle" x="516.5" y="-57.8" font-family="Times,serif" font-size="14.00" fill="#000000">audits</text>
</g>
<!-- Heading -->
<g id="node7" class="node">
<title>Heading</title>
<path fill="none" stroke="#000000" d="M542.5,-577C542.5,-577 649.5,-577 649.5,-577 655.5,-577 661.5,-583 661.5,-589 661.5,-589 661.5,-671 661.5,-671 661.5,-677 655.5,-683 649.5,-683 649.5,-683 542.5,-683 542.5,-683 536.5,-683 530.5,-677 530.5,-671 530.5,-671 530.5,-589 530.5,-589 530.5,-583 536.5,-577 542.5,-577"/>
<text text-anchor="middle" x="596" y="-667.8" font-family="Times,serif" font-size="14.00" fill="#000000">Heading</text>
<polyline fill="none" stroke="#000000" points="530.5,-660 661.5,-660 "/>
<text text-anchor="start" x="538.5" y="-644.8" font-family="Times,serif" font-size="14.00" fill="#000000">id :INTEGER</text>
<text text-anchor="start" x="538.5" y="-629.8" font-family="Times,serif" font-size="14.00" fill="#000000">name :text</text>
<text text-anchor="start" x="538.5" y="-614.8" font-family="Times,serif" font-size="14.00" fill="#000000">state :text</text>
<text text-anchor="start" x="538.5" y="-599.8" font-family="Times,serif" font-size="14.00" fill="#000000">created_at :datetime</text>
<text text-anchor="start" x="538.5" y="-584.8" font-family="Times,serif" font-size="14.00" fill="#000000">updated_at :datetime</text>
</g>
<!-- Heading&#45;&gt;Book -->
<g id="edge10" class="edge">
<title>Heading&#45;&gt;Book</title>
<path fill="none" stroke="#edf30a" d="M582.4123,-568.8554C578.4908,-551.2085 574.077,-531.3466 569.6757,-511.5405"/>
<ellipse fill="none" stroke="#edf30a" cx="583.3326" cy="-572.997" rx="4" ry="4"/>
<polygon fill="#edf30a" stroke="#edf30a" points="569.6177,-511.2794 571.8412,-500.5413 568.533,-506.3984 567.4483,-501.5175 567.4483,-501.5175 567.4483,-501.5175 568.533,-506.3984 563.0555,-502.4937 569.6177,-511.2794 569.6177,-511.2794"/>
</g>
<!-- Heading&#45;&gt;Audited::Audit -->
<g id="edge9" class="edge">
<title>Heading&#45;&gt;Audited::Audit</title>
<path fill="none" stroke="#2aae36" d="M626.6943,-569.1719C676.328,-461.2842 758.7166,-233.9704 655,-87 639.155,-64.5471 572.3661,-44.1754 521.541,-31.4839"/>
<ellipse fill="none" stroke="#2aae36" cx="624.8666" cy="-573.1035" rx="4" ry="4"/>
<polygon fill="#2aae36" stroke="#2aae36" points="521.3213,-31.4302 512.6799,-24.6791 516.465,-30.2399 511.6087,-29.0497 511.6087,-29.0497 511.6087,-29.0497 516.465,-30.2399 510.5375,-33.4204 521.3213,-31.4302 521.3213,-31.4302"/>
<text text-anchor="middle" x="720.5" y="-260.8" font-family="Times,serif" font-size="14.00" fill="#000000">audits</text>
</g>
<!-- User -->
<g id="node8" class="node">
<title>User</title>
<path fill="none" stroke="#000000" d="M692,-539.5C692,-539.5 828,-539.5 828,-539.5 834,-539.5 840,-545.5 840,-551.5 840,-551.5 840,-708.5 840,-708.5 840,-714.5 834,-720.5 828,-720.5 828,-720.5 692,-720.5 692,-720.5 686,-720.5 680,-714.5 680,-708.5 680,-708.5 680,-551.5 680,-551.5 680,-545.5 686,-539.5 692,-539.5"/>
<text text-anchor="middle" x="760" y="-705.3" font-family="Times,serif" font-size="14.00" fill="#000000">User</text>
<polyline fill="none" stroke="#000000" points="680,-697.5 840,-697.5 "/>
<text text-anchor="start" x="688" y="-682.3" font-family="Times,serif" font-size="14.00" fill="#000000">id :integer</text>
<text text-anchor="start" x="688" y="-667.3" font-family="Times,serif" font-size="14.00" fill="#000000">name :varchar</text>
<text text-anchor="start" x="688" y="-652.3" font-family="Times,serif" font-size="14.00" fill="#000000">date_birth :date</text>
<text text-anchor="start" x="688" y="-637.3" font-family="Times,serif" font-size="14.00" fill="#000000">created_at :datetime</text>
<text text-anchor="start" x="688" y="-622.3" font-family="Times,serif" font-size="14.00" fill="#000000">updated_at :datetime</text>
<text text-anchor="start" x="688" y="-607.3" font-family="Times,serif" font-size="14.00" fill="#000000">state :text</text>
<text text-anchor="start" x="688" y="-592.3" font-family="Times,serif" font-size="14.00" fill="#000000">password_digest :varchar</text>
<text text-anchor="start" x="688" y="-577.3" font-family="Times,serif" font-size="14.00" fill="#000000">remember_digest :varchar</text>
<text text-anchor="start" x="688" y="-562.3" font-family="Times,serif" font-size="14.00" fill="#000000">city :text</text>
<text text-anchor="start" x="688" y="-547.3" font-family="Times,serif" font-size="14.00" fill="#000000">email :text</text>
</g>
<!-- User&#45;&gt;Book -->
<g id="edge12" class="edge">
<title>User&#45;&gt;Book</title>
<path fill="none" stroke="#5da604" d="M674.4412,-537.3113C658.2961,-519.8207 641.4509,-501.5718 625.4365,-484.2229"/>
<ellipse fill="none" stroke="#5da604" cx="677.1634" cy="-540.2603" rx="4" ry="4"/>
<polygon fill="#5da604" stroke="#5da604" points="625.4114,-484.1956 621.9352,-473.7953 622.02,-480.5216 618.6285,-476.8476 618.6285,-476.8476 618.6285,-476.8476 622.02,-480.5216 615.3219,-479.8999 625.4114,-484.1956 625.4114,-484.1956"/>
</g>
<!-- User&#45;&gt;Bookcase -->
<g id="edge13" class="edge">
<title>User&#45;&gt;Bookcase</title>
<path fill="none" stroke="#855452" d="M747.1766,-531.1937C732.9555,-422.6946 711.5397,-262.9078 708,-257 694.9816,-235.272 674.8137,-217.0763 654.2616,-202.6604"/>
<ellipse fill="none" stroke="#855452" cx="747.7109" cy="-535.2735" rx="4" ry="4"/>
<polygon fill="#855452" stroke="#855452" points="654.0484,-202.5164 648.2819,-193.1892 649.9055,-199.7171 645.7625,-196.9178 645.7625,-196.9178 645.7625,-196.9178 649.9055,-199.7171 643.2431,-200.6465 654.0484,-202.5164 654.0484,-202.5164"/>
</g>
<!-- User&#45;&gt;Audited::Audit -->
<g id="edge11" class="edge">
<title>User&#45;&gt;Audited::Audit</title>
<path fill="none" stroke="#a96638" d="M776.0562,-531.2842C789.5406,-412.8397 793.0091,-214.3319 693,-87 672.3162,-60.6653 587.4654,-40.3771 526.3611,-28.8138"/>
<ellipse fill="none" stroke="#a96638" cx="775.5788" cy="-535.3474" rx="4" ry="4"/>
<polygon fill="#a96638" stroke="#a96638" points="526.2243,-28.7885 517.213,-22.5397 521.3082,-27.8763 516.3921,-26.9642 516.3921,-26.9642 516.3921,-26.9642 521.3082,-27.8763 515.5711,-31.3887 526.2243,-28.7885 526.2243,-28.7885"/>
<text text-anchor="middle" x="786.5" y="-260.8" font-family="Times,serif" font-size="14.00" fill="#000000">audits</text>
</g>
</g>
</svg>
