<?xml version="1.0" encoding="UTF-8" standalone="no"?>
<!DOCTYPE svg PUBLIC "-//W3C//DTD SVG 1.1//EN"
 "http://www.w3.org/Graphics/SVG/1.1/DTD/svg11.dtd">
<!-- Generated by graphviz version 2.40.1 (20161225.0304)
 -->
<!-- Title: models_diagram Pages: 1 -->
<svg width="635pt" height="333pt"
 viewBox="0.00 0.00 635.00 333.00" xmlns="http://www.w3.org/2000/svg" xmlns:xlink="http://www.w3.org/1999/xlink">
<g id="graph0" class="graph" transform="scale(1 1) rotate(0) translate(4 329)">
<title>models_diagram</title>
<polygon fill="transparent" stroke="transparent" points="-4,4 -4,-329 631,-329 631,4 -4,4"/>
<!-- _diagram_info -->
<g id="node1" class="node">
<title>_diagram_info</title>
<text text-anchor="start" x="8" y="-310.6" font-family="Times,serif" font-size="13.00" fill="#000000">Models diagram</text>
<text text-anchor="start" x="8" y="-296.6" font-family="Times,serif" font-size="13.00" fill="#000000">Date: Nov 07 2019 &#45; 23:52</text>
<text text-anchor="start" x="8" y="-282.6" font-family="Times,serif" font-size="13.00" fill="#000000">Migration version: 20191008150135</text>
<text text-anchor="start" x="8" y="-268.6" font-family="Times,serif" font-size="13.00" fill="#000000">Generated by RailRoady 1.5.3</text>
<text text-anchor="start" x="8" y="-254.6" font-family="Times,serif" font-size="13.00" fill="#000000">http://railroady.prestonlee.com</text>
</g>
<!-- ApplicationRecord -->
<g id="node2" class="node">
<title>ApplicationRecord</title>
<ellipse fill="none" stroke="#000000" cx="161" cy="-105" rx="77.1866" ry="18"/>
<text text-anchor="middle" x="161" y="-101.3" font-family="Times,serif" font-size="14.00" fill="#000000">ApplicationRecord</text>
</g>
<!-- Audited::Audit -->
<g id="node9" class="node">
<title>Audited::Audit</title>
<ellipse fill="none" stroke="#000000" cx="368" cy="-18" rx="63.8893" ry="18"/>
<text text-anchor="middle" x="368" y="-14.3" font-family="Times,serif" font-size="14.00" fill="#000000">Audited::Audit</text>
</g>
<!-- ApplicationRecord&#45;&gt;Audited::Audit -->
<g id="edge1" class="edge">
<title>ApplicationRecord&#45;&gt;Audited::Audit</title>
<path fill="none" stroke="#c0b6c0" d="M183.0405,-81.0458C193.1415,-71.3555 205.7964,-60.86 219,-54 243.9187,-41.0534 273.6098,-32.6633 299.9055,-27.2731"/>
<ellipse fill="none" stroke="#c0b6c0" cx="179.9399" cy="-84.1195" rx="4" ry="4"/>
<polygon fill="#c0b6c0" stroke="#c0b6c0" points="299.9838,-27.258 310.6585,-29.7683 304.892,-26.3044 309.8003,-25.3509 309.8003,-25.3509 309.8003,-25.3509 304.892,-26.3044 308.9421,-20.9334 299.9838,-27.258 299.9838,-27.258"/>
<text text-anchor="middle" x="235.5" y="-57.8" font-family="Times,serif" font-size="14.00" fill="#000000">audits</text>
</g>
<!-- Publisher -->
<g id="node3" class="node">
<title>Publisher</title>
<ellipse fill="none" stroke="#000000" cx="382" cy="-286" rx="44.393" ry="18"/>
<text text-anchor="middle" x="382" y="-282.3" font-family="Times,serif" font-size="14.00" fill="#000000">Publisher</text>
</g>
<!-- Book -->
<g id="node5" class="node">
<title>Book</title>
<ellipse fill="none" stroke="#000000" cx="443" cy="-192" rx="29.795" ry="18"/>
<text text-anchor="middle" x="443" y="-188.3" font-family="Times,serif" font-size="14.00" fill="#000000">Book</text>
</g>
<!-- Publisher&#45;&gt;Book -->
<g id="edge3" class="edge">
<title>Publisher&#45;&gt;Book</title>
<path fill="none" stroke="#58ac51" d="M397.8529,-261.571C406.6482,-248.0175 417.5745,-231.1803 426.475,-217.4647"/>
<ellipse fill="none" stroke="#58ac51" cx="395.6511" cy="-264.9639" rx="4" ry="4"/>
<polygon fill="#58ac51" stroke="#58ac51" points="426.545,-217.3568 435.7635,-211.4179 429.2669,-213.1625 431.9887,-208.9683 431.9887,-208.9683 431.9887,-208.9683 429.2669,-213.1625 428.2138,-206.5186 426.545,-217.3568 426.545,-217.3568"/>
</g>
<!-- Publisher&#45;&gt;Audited::Audit -->
<g id="edge2" class="edge">
<title>Publisher&#45;&gt;Audited::Audit</title>
<path fill="none" stroke="#4df4db" d="M373.8492,-259.8404C366.1975,-233.8168 355.303,-192.596 351,-156 346.5257,-117.9474 354.1346,-74.0318 360.5633,-46.1514"/>
<ellipse fill="none" stroke="#4df4db" cx="375.0618" cy="-263.8979" rx="4" ry="4"/>
<polygon fill="#4df4db" stroke="#4df4db" points="360.5955,-46.0176 367.3161,-37.3525 361.7686,-41.1572 362.9417,-36.2968 362.9417,-36.2968 362.9417,-36.2968 361.7686,-41.1572 358.5673,-35.241 360.5955,-46.0176 360.5955,-46.0176"/>
<text text-anchor="middle" x="367.5" y="-144.8" font-family="Times,serif" font-size="14.00" fill="#000000">audits</text>
</g>
<!-- Author -->
<g id="node4" class="node">
<title>Author</title>
<ellipse fill="none" stroke="#000000" cx="268" cy="-286" rx="35.9954" ry="18"/>
<text text-anchor="middle" x="268" y="-282.3" font-family="Times,serif" font-size="14.00" fill="#000000">Author</text>
</g>
<!-- Author&#45;&gt;Book -->
<g id="edge5" class="edge">
<title>Author&#45;&gt;Book</title>
<path fill="none" stroke="#cd29d1" d="M296.1408,-267.0171C306.3308,-260.4094 318.0317,-253.1234 329,-247 355.3582,-232.2846 386.2554,-217.5245 409.2299,-207.0051"/>
<ellipse fill="none" stroke="#cd29d1" cx="292.7015" cy="-269.2693" rx="4" ry="4"/>
<polygon fill="#cd29d1" stroke="#cd29d1" points="409.4502,-206.9051 420.416,-206.866 414.0025,-204.837 418.5548,-202.7689 418.5548,-202.7689 418.5548,-202.7689 414.0025,-204.837 416.6935,-198.6719 409.4502,-206.9051 409.4502,-206.9051"/>
</g>
<!-- Author&#45;&gt;Audited::Audit -->
<g id="edge4" class="edge">
<title>Author&#45;&gt;Audited::Audit</title>
<path fill="none" stroke="#b2dda4" d="M275.101,-259.8301C283.2817,-230.5466 297.5904,-181.852 313,-141 325.6815,-107.3803 342.9467,-69.8213 354.7289,-45.155"/>
<ellipse fill="none" stroke="#b2dda4" cx="273.9306" cy="-264.0536" rx="4" ry="4"/>
<polygon fill="#b2dda4" stroke="#b2dda4" points="354.7724,-45.0645 363.1627,-38.0039 356.94,-40.5588 359.1076,-36.0531 359.1076,-36.0531 359.1076,-36.0531 356.94,-40.5588 355.0524,-34.1022 354.7724,-45.0645 354.7724,-45.0645"/>
<text text-anchor="middle" x="329.5" y="-144.8" font-family="Times,serif" font-size="14.00" fill="#000000">audits</text>
</g>
<!-- Bookcase -->
<g id="node6" class="node">
<title>Bookcase</title>
<ellipse fill="none" stroke="#000000" cx="464" cy="-105" rx="44.6926" ry="18"/>
<text text-anchor="middle" x="464" y="-101.3" font-family="Times,serif" font-size="14.00" fill="#000000">Bookcase</text>
</g>
<!-- Book&#45;&gt;Bookcase -->
<g id="edge7" class="edge">
<title>Book&#45;&gt;Bookcase</title>
<path fill="none" stroke="#a805c4" d="M449.2324,-166.1799C451.9059,-155.1041 455.0242,-142.1854 457.7046,-131.0809"/>
<ellipse fill="none" stroke="#a805c4" cx="448.2898" cy="-170.0852" rx="4" ry="4"/>
<ellipse fill="#a805c4" stroke="#a805c4" cx="458.7158" cy="-126.8917" rx="4" ry="4"/>
</g>
<!-- Book&#45;&gt;Audited::Audit -->
<g id="edge6" class="edge">
<title>Book&#45;&gt;Audited::Audit</title>
<path fill="none" stroke="#3e454a" d="M417.2476,-172.6033C402.7739,-160.1461 385.8779,-142.6505 377,-123 366.0597,-98.7846 364.636,-68.2504 365.4522,-46.3608"/>
<ellipse fill="none" stroke="#3e454a" cx="420.6145" cy="-175.404" rx="4" ry="4"/>
<polygon fill="#3e454a" stroke="#3e454a" points="365.4522,-46.3599 370.4942,-36.6219 365.7266,-41.3674 366.0009,-36.3749 366.0009,-36.3749 366.0009,-36.3749 365.7266,-41.3674 361.5077,-36.128 365.4522,-46.3599 365.4522,-46.3599"/>
<text text-anchor="middle" x="393.5" y="-101.3" font-family="Times,serif" font-size="14.00" fill="#000000">audits</text>
</g>
<!-- Bookcase&#45;&gt;Audited::Audit -->
<g id="edge8" class="edge">
<title>Bookcase&#45;&gt;Audited::Audit</title>
<path fill="none" stroke="#193ba2" d="M439.292,-82.6084C425.5799,-70.1818 408.5205,-54.7217 394.5276,-42.0407"/>
<ellipse fill="none" stroke="#193ba2" cx="442.5263" cy="-85.5394" rx="4" ry="4"/>
<polygon fill="#193ba2" stroke="#193ba2" points="394.5199,-42.0337 390.1319,-31.984 390.815,-38.6761 387.11,-35.3185 387.11,-35.3185 387.11,-35.3185 390.815,-38.6761 384.0882,-38.6529 394.5199,-42.0337 394.5199,-42.0337"/>
<text text-anchor="middle" x="438.5" y="-57.8" font-family="Times,serif" font-size="14.00" fill="#000000">audits</text>
</g>
<!-- Heading -->
<g id="node7" class="node">
<title>Heading</title>
<ellipse fill="none" stroke="#000000" cx="492" cy="-286" rx="40.0939" ry="18"/>
<text text-anchor="middle" x="492" y="-282.3" font-family="Times,serif" font-size="14.00" fill="#000000">Heading</text>
</g>
<!-- Heading&#45;&gt;Book -->
<g id="edge10" class="edge">
<title>Heading&#45;&gt;Book</title>
<path fill="none" stroke="#9dc48c" d="M479.059,-261.1745C472.2015,-248.0192 463.7765,-231.8569 456.795,-218.4639"/>
<ellipse fill="none" stroke="#9dc48c" cx="480.9345" cy="-264.7723" rx="4" ry="4"/>
<polygon fill="#9dc48c" stroke="#9dc48c" points="456.6321,-218.1514 456,-207.2037 454.3209,-213.7176 452.0096,-209.2838 452.0096,-209.2838 452.0096,-209.2838 454.3209,-213.7176 448.0193,-211.3639 456.6321,-218.1514 456.6321,-218.1514"/>
</g>
<!-- Heading&#45;&gt;Audited::Audit -->
<g id="edge9" class="edge">
<title>Heading&#45;&gt;Audited::Audit</title>
<path fill="none" stroke="#585110" d="M504.6449,-260.8959C522.7458,-221.0974 550.471,-142.3667 518,-87 500.1273,-56.525 464.6956,-39.4006 432.755,-29.8354"/>
<ellipse fill="none" stroke="#585110" cx="502.8683" cy="-264.6947" rx="4" ry="4"/>
<polygon fill="#585110" stroke="#585110" points="432.6088,-29.7946 424.189,-22.7692 427.7933,-28.4489 422.9778,-27.1032 422.9778,-27.1032 422.9778,-27.1032 427.7933,-28.4489 421.7667,-31.4372 432.6088,-29.7946 432.6088,-29.7946"/>
<text text-anchor="middle" x="549.5" y="-144.8" font-family="Times,serif" font-size="14.00" fill="#000000">audits</text>
</g>
<!-- User -->
<g id="node8" class="node">
<title>User</title>
<ellipse fill="none" stroke="#000000" cx="582" cy="-286" rx="27.0966" ry="18"/>
<text text-anchor="middle" x="582" y="-282.3" font-family="Times,serif" font-size="14.00" fill="#000000">User</text>
</g>
<!-- User&#45;&gt;Book -->
<g id="edge12" class="edge">
<title>User&#45;&gt;Book</title>
<path fill="none" stroke="#97e899" d="M561.6121,-264.6954C555.2925,-258.6303 548.1133,-252.2511 541,-247 520.4964,-231.864 495.4017,-217.8547 475.7394,-207.763"/>
<ellipse fill="none" stroke="#97e899" cx="564.7607" cy="-267.7957" rx="4" ry="4"/>
<polygon fill="#97e899" stroke="#97e899" points="475.4956,-207.6401 468.5942,-199.1182 471.0315,-205.388 466.5674,-203.1359 466.5674,-203.1359 466.5674,-203.1359 471.0315,-205.388 464.5405,-207.1536 475.4956,-207.6401 475.4956,-207.6401"/>
</g>
<!-- User&#45;&gt;Bookcase -->
<g id="edge13" class="edge">
<title>User&#45;&gt;Bookcase</title>
<path fill="none" stroke="#4b2c5a" d="M587.1867,-260.263C591.9891,-228.6736 594.854,-175.1122 568,-141 560.7094,-131.7389 536.291,-123.0429 512.9469,-116.5183"/>
<ellipse fill="none" stroke="#4b2c5a" cx="586.528" cy="-264.2298" rx="4" ry="4"/>
<polygon fill="#4b2c5a" stroke="#4b2c5a" points="512.7181,-116.4569 504.2299,-109.5141 507.8896,-115.1583 503.0612,-113.8597 503.0612,-113.8597 503.0612,-113.8597 507.8896,-115.1583 501.8925,-118.2053 512.7181,-116.4569 512.7181,-116.4569"/>
</g>
<!-- User&#45;&gt;Audited::Audit -->
<g id="edge11" class="edge">
<title>User&#45;&gt;Audited::Audit</title>
<path fill="none" stroke="#a326f2" d="M593.9026,-261.0922C597.958,-251.3201 601.9767,-239.8614 604,-229 611.3109,-189.7542 607.5901,-174.5789 586,-141 558.0741,-97.5671 553.2493,-80.6134 509,-54 487.1171,-40.8387 460.5343,-32.4583 436.374,-27.1352"/>
<ellipse fill="none" stroke="#a326f2" cx="592.2712" cy="-264.8542" rx="4" ry="4"/>
<polygon fill="#a326f2" stroke="#a326f2" points="436.3375,-27.1278 427.4547,-20.6977 431.4409,-26.1162 426.5443,-25.1047 426.5443,-25.1047 426.5443,-25.1047 431.4409,-26.1162 425.6339,-29.5116 436.3375,-27.1278 436.3375,-27.1278"/>
<text text-anchor="middle" x="610.5" y="-144.8" font-family="Times,serif" font-size="14.00" fill="#000000">audits</text>
</g>
</g>
</svg>
